<svg id="visual" viewBox="0 0 675 900" width="675" height="900" xmlns="http://www.w3.org/2000/svg" xmlns:xlink="http://www.w3.org/1999/xlink" version="1.1"><rect x="0" y="0" width="675" height="900" fill="#001220"></rect><defs><linearGradient id="grad1_0" x1="0%" y1="0%" x2="100%" y2="100%"><stop offset="30%" stop-color="#001220" stop-opacity="1"></stop><stop offset="70%" stop-color="#001220" stop-opacity="1"></stop></linearGradient></defs><defs><linearGradient id="grad2_0" x1="0%" y1="0%" x2="100%" y2="100%"><stop offset="30%" stop-color="#001220" stop-opacity="1"></stop><stop offset="70%" stop-color="#001220" stop-opacity="1"></stop></linearGradient></defs><g transform="translate(675, 0)"><path d="M0 506.3C-51 465.5 -102.1 424.8 -168.8 407.4C-235.4 390 -317.8 395.9 -358 358C-398.2 320.1 -396.2 238.4 -413.9 171.4C-431.6 104.5 -468.9 52.2 -506.2 0L0 0Z" fill="#BFDBFE"></path></g><g transform="translate(0, 900)"><path d="M0 -506.2C60.4 -483 120.7 -459.8 181 -437C241.3 -414.2 301.6 -391.9 352.1 -352.1C402.7 -312.4 443.6 -255.3 467.7 -193.7C491.8 -132.1 499 -66.1 506.3 0L0 0Z" fill="#BFDBFE"></path></g></svg>