<svg id="visual" viewBox="0 0 675 900" width="675" height="900" xmlns="http://www.w3.org/2000/svg" xmlns:xlink="http://www.w3.org/1999/xlink" version="1.1"><rect x="0" y="0" width="675" height="900" fill="#BFDBFE"></rect><path d="M0 441L12.5 428.8C25 416.7 50 392.3 75 381.3C100 370.3 125 372.7 150 390.8C175 409 200 443 225 450C250 457 275 437 300 450.2C325 463.3 350 509.7 375 523.2C400 536.7 425 517.3 450 498.8C475 480.3 500 462.7 525 464.8C550 467 575 489 600 487.5C625 486 650 461 662.5 448.5L675 436L675 901L662.5 901C650 901 625 901 600 901C575 901 550 901 525 901C500 901 475 901 450 901C425 901 400 901 375 901C350 901 325 901 300 901C275 901 250 901 225 901C200 901 175 901 150 901C125 901 100 901 75 901C50 901 25 901 12.5 901L0 901Z" fill="#1e40af"></path><path d="M0 430L12.5 458.8C25 487.7 50 545.3 75 560.8C100 576.3 125 549.7 150 525.8C175 502 200 481 225 473.3C250 465.7 275 471.3 300 492.8C325 514.3 350 551.7 375 547.8C400 544 425 499 450 487.3C475 475.7 500 497.3 525 493.2C550 489 575 459 600 449.7C625 440.3 650 451.7 662.5 457.3L675 463L675 901L662.5 901C650 901 625 901 600 901C575 901 550 901 525 901C500 901 475 901 450 901C425 901 400 901 375 901C350 901 325 901 300 901C275 901 250 901 225 901C200 901 175 901 150 901C125 901 100 901 75 901C50 901 25 901 12.5 901L0 901Z" fill="#4971cd"></path><path d="M0 569L12.5 572.8C25 576.7 50 584.3 75 589.7C100 595 125 598 150 608.5C175 619 200 637 225 616C250 595 275 535 300 509.2C325 483.3 350 491.7 375 523.3C400 555 425 610 450 637.2C475 664.3 500 663.7 525 655.3C550 647 575 631 600 604.5C625 578 650 541 662.5 522.5L675 504L675 901L662.5 901C650 901 625 901 600 901C575 901 550 901 525 901C500 901 475 901 450 901C425 901 400 901 375 901C350 901 325 901 300 901C275 901 250 901 225 901C200 901 175 901 150 901C125 901 100 901 75 901C50 901 25 901 12.5 901L0 901Z" fill="#7aa1e5"></path><path d="M0 566L12.5 567.3C25 568.7 50 571.3 75 585.8C100 600.3 125 626.7 150 637C175 647.3 200 641.7 225 625.7C250 609.7 275 583.3 300 572.5C325 561.7 350 566.3 375 574C400 581.7 425 592.3 450 585C475 577.7 500 552.3 525 545.2C550 538 575 549 600 572C625 595 650 630 662.5 647.5L675 665L675 901L662.5 901C650 901 625 901 600 901C575 901 550 901 525 901C500 901 475 901 450 901C425 901 400 901 375 901C350 901 325 901 300 901C275 901 250 901 225 901C200 901 175 901 150 901C125 901 100 901 75 901C50 901 25 901 12.5 901L0 901Z" fill="#b3d1fa"></path><path d="M0 619L12.5 622.7C25 626.3 50 633.7 75 646.3C100 659 125 677 150 671.3C175 665.7 200 636.3 225 630.7C250 625 275 643 300 640.8C325 638.7 350 616.3 375 615.8C400 615.3 425 636.7 450 643.3C475 650 500 642 525 629.2C550 616.3 575 598.7 600 596.8C625 595 650 609 662.5 616L675 623L675 901L662.5 901C650 901 625 901 600 901C575 901 550 901 525 901C500 901 475 901 450 901C425 901 400 901 375 901C350 901 325 901 300 901C275 901 250 901 225 901C200 901 175 901 150 901C125 901 100 901 75 901C50 901 25 901 12.5 901L0 901Z" fill="#bfdbfe"></path><path d="M0 727L12.5 728.2C25 729.3 50 731.7 75 724.3C100 717 125 700 150 685.2C175 670.3 200 657.7 225 659.8C250 662 275 679 300 678.8C325 678.7 350 661.3 375 663.7C400 666 425 688 450 704.8C475 721.7 500 733.3 525 739.8C550 746.3 575 747.7 600 731.3C625 715 650 681 662.5 664L675 647L675 901L662.5 901C650 901 625 901 600 901C575 901 550 901 525 901C500 901 475 901 450 901C425 901 400 901 375 901C350 901 325 901 300 901C275 901 250 901 225 901C200 901 175 901 150 901C125 901 100 901 75 901C50 901 25 901 12.5 901L0 901Z" fill="#b3d1fa"></path><path d="M0 748L12.5 740.3C25 732.7 50 717.3 75 712.2C100 707 125 712 150 719.2C175 726.3 200 735.7 225 738.5C250 741.3 275 737.7 300 729C325 720.3 350 706.7 375 713.8C400 721 425 749 450 752C475 755 500 733 525 734.7C550 736.3 575 761.7 600 760.7C625 759.7 650 732.3 662.5 718.7L675 705L675 901L662.5 901C650 901 625 901 600 901C575 901 550 901 525 901C500 901 475 901 450 901C425 901 400 901 375 901C350 901 325 901 300 901C275 901 250 901 225 901C200 901 175 901 150 901C125 901 100 901 75 901C50 901 25 901 12.5 901L0 901Z" fill="#7aa1e5"></path><path d="M0 789L12.5 791.2C25 793.3 50 797.7 75 797.2C100 796.7 125 791.3 150 785.5C175 779.7 200 773.3 225 769.3C250 765.3 275 763.7 300 772C325 780.3 350 798.7 375 806.5C400 814.3 425 811.7 450 800C475 788.3 500 767.7 525 756.8C550 746 575 745 600 747.3C625 749.7 650 755.3 662.5 758.2L675 761L675 901L662.5 901C650 901 625 901 600 901C575 901 550 901 525 901C500 901 475 901 450 901C425 901 400 901 375 901C350 901 325 901 300 901C275 901 250 901 225 901C200 901 175 901 150 901C125 901 100 901 75 901C50 901 25 901 12.5 901L0 901Z" fill="#4971cd"></path><path d="M0 832L12.5 828.7C25 825.3 50 818.7 75 822.3C100 826 125 840 150 842.7C175 845.3 200 836.7 225 827.5C250 818.3 275 808.7 300 808.3C325 808 350 817 375 822.8C400 828.7 425 831.3 450 829C475 826.7 500 819.3 525 816.2C550 813 575 814 600 816.5C625 819 650 823 662.5 825L675 827L675 901L662.5 901C650 901 625 901 600 901C575 901 550 901 525 901C500 901 475 901 450 901C425 901 400 901 375 901C350 901 325 901 300 901C275 901 250 901 225 901C200 901 175 901 150 901C125 901 100 901 75 901C50 901 25 901 12.5 901L0 901Z" fill="#1e40af"></path></svg>