<svg id="visual" viewBox="0 0 675 900" width="675" height="900" xmlns="http://www.w3.org/2000/svg" xmlns:xlink="http://www.w3.org/1999/xlink" version="1.1"><path d="M627 900L620 788L613 675L627 563L613 450L613 338L634 225L647 113L620 0L675 0L675 113L675 225L675 338L675 450L675 563L675 675L675 788L675 900Z" fill="#1f7ca7"></path><path d="M499 900L532 788L512 675L465 563L444 450L451 338L458 225L553 113L471 0L621 0L648 113L635 225L614 338L614 450L628 563L614 675L621 788L628 900Z" fill="#006cb2"></path><path d="M458 900L505 788L458 675L424 563L397 450L418 338L438 225L499 113L444 0L472 0L554 113L459 225L452 338L445 450L466 563L513 675L533 788L500 900Z" fill="#0656b6"></path><path d="M424 900L471 788L438 675L384 563L364 450L397 338L418 225L465 113L424 0L445 0L500 113L439 225L419 338L398 450L425 563L459 675L506 788L459 900Z" fill="#3339af"></path><path d="M391 900L418 788L391 675L350 563L323 450L350 338L377 225L397 113L377 0L425 0L466 113L419 225L398 338L365 450L385 563L439 675L472 788L425 900Z" fill="#4a1fa6"></path><path d="M350 900L370 788L357 675L330 563L303 450L310 338L337 225L370 113L330 0L378 0L398 113L378 225L351 338L324 450L351 563L392 675L419 788L392 900Z" fill="#4a1fa6"></path><path d="M195 900L215 788L195 675L154 563L168 450L161 338L188 225L195 113L134 0L331 0L371 113L338 225L311 338L304 450L331 563L358 675L371 788L351 900Z" fill="#3339af"></path><path d="M127 900L100 788L127 675L80 563L80 450L107 338L94 225L73 113L73 0L135 0L196 113L189 225L162 338L169 450L155 563L196 675L216 788L196 900Z" fill="#0656b6"></path><path d="M33 900L40 788L46 675L26 563L33 450L26 338L26 225L33 113L26 0L74 0L74 113L95 225L108 338L81 450L81 563L128 675L101 788L128 900Z" fill="#006cb2"></path><path d="M0 900L0 788L0 675L0 563L0 450L0 338L0 225L0 113L0 0L27 0L34 113L27 225L27 338L34 450L27 563L47 675L41 788L34 900Z" fill="#1f7ca7"></path></svg>