<svg xmlns="http://www.w3.org/2000/svg" version="1.1" xmlns:xlink="http://www.w3.org/1999/xlink" xmlns:svgjs="http://svgjs.dev/svgjs" viewBox="0 0 2400 800"><defs><linearGradient x1="50%" y1="0%" x2="50%" y2="100%" id="sssurf-grad"><stop stop-color="hsla(216, 75%, 49%, 1.00)" stop-opacity="1" offset="0%"></stop><stop stop-color="hsla(238, 99%, 54%, 1.00)" stop-opacity="1" offset="100%"></stop></linearGradient></defs><g fill="url(#sssurf-grad)" transform="matrix(1,0,0,1,8.7225341796875,-42.78150939941406)"><path d="M-10,10C42.08333333333333,12.083333333333334,137.91666666666666,24.166666666666668,240,20C342.08333333333337,15.833333333333332,380,-10.833333333333334,480,-10C580,-9.166666666666666,620,24.625,720,24C820,23.375,860,-13.833333333333334,960,-13C1060,-12.166666666666666,1100,27.791666666666668,1200,28C1300,28.208333333333332,1340,-13.25,1440,-12C1540,-10.75,1580,33.583333333333336,1680,34C1780,34.416666666666664,1820,-9.166666666666666,1920,-10C2020,-10.833333333333334,2060,26.666666666666668,2160,30C2260,33.333333333333336,2297.9166666666665,-71.08333333333333,2400,6C2502.0833333333335,83.08333333333333,3254.1666666666665,213.75,2650,400C2045.8333333333335,586.25,156.25,795.8333333333334,-500,900" transform="matrix(1,0,0,1,0,101)" opacity="0.05"></path><path d="M-10,10C42.08333333333333,12.083333333333334,137.91666666666666,24.166666666666668,240,20C342.08333333333337,15.833333333333332,380,-10.833333333333334,480,-10C580,-9.166666666666666,620,24.625,720,24C820,23.375,860,-13.833333333333334,960,-13C1060,-12.166666666666666,1100,27.791666666666668,1200,28C1300,28.208333333333332,1340,-13.25,1440,-12C1540,-10.75,1580,33.583333333333336,1680,34C1780,34.416666666666664,1820,-9.166666666666666,1920,-10C2020,-10.833333333333334,2060,26.666666666666668,2160,30C2260,33.333333333333336,2297.9166666666665,-71.08333333333333,2400,6C2502.0833333333335,83.08333333333333,3254.1666666666665,213.75,2650,400C2045.8333333333335,586.25,156.25,795.8333333333334,-500,900" transform="matrix(1,0,0,1,0,202)" opacity="0.21"></path><path d="M-10,10C42.08333333333333,12.083333333333334,137.91666666666666,24.166666666666668,240,20C342.08333333333337,15.833333333333332,380,-10.833333333333334,480,-10C580,-9.166666666666666,620,24.625,720,24C820,23.375,860,-13.833333333333334,960,-13C1060,-12.166666666666666,1100,27.791666666666668,1200,28C1300,28.208333333333332,1340,-13.25,1440,-12C1540,-10.75,1580,33.583333333333336,1680,34C1780,34.416666666666664,1820,-9.166666666666666,1920,-10C2020,-10.833333333333334,2060,26.666666666666668,2160,30C2260,33.333333333333336,2297.9166666666665,-71.08333333333333,2400,6C2502.0833333333335,83.08333333333333,3254.1666666666665,213.75,2650,400C2045.8333333333335,586.25,156.25,795.8333333333334,-500,900" transform="matrix(1,0,0,1,0,303)" opacity="0.37"></path><path d="M-10,10C42.08333333333333,12.083333333333334,137.91666666666666,24.166666666666668,240,20C342.08333333333337,15.833333333333332,380,-10.833333333333334,480,-10C580,-9.166666666666666,620,24.625,720,24C820,23.375,860,-13.833333333333334,960,-13C1060,-12.166666666666666,1100,27.791666666666668,1200,28C1300,28.208333333333332,1340,-13.25,1440,-12C1540,-10.75,1580,33.583333333333336,1680,34C1780,34.416666666666664,1820,-9.166666666666666,1920,-10C2020,-10.833333333333334,2060,26.666666666666668,2160,30C2260,33.333333333333336,2297.9166666666665,-71.08333333333333,2400,6C2502.0833333333335,83.08333333333333,3254.1666666666665,213.75,2650,400C2045.8333333333335,586.25,156.25,795.8333333333334,-500,900" transform="matrix(1,0,0,1,0,404)" opacity="0.53"></path><path d="M-10,10C42.08333333333333,12.083333333333334,137.91666666666666,24.166666666666668,240,20C342.08333333333337,15.833333333333332,380,-10.833333333333334,480,-10C580,-9.166666666666666,620,24.625,720,24C820,23.375,860,-13.833333333333334,960,-13C1060,-12.166666666666666,1100,27.791666666666668,1200,28C1300,28.208333333333332,1340,-13.25,1440,-12C1540,-10.75,1580,33.583333333333336,1680,34C1780,34.416666666666664,1820,-9.166666666666666,1920,-10C2020,-10.833333333333334,2060,26.666666666666668,2160,30C2260,33.333333333333336,2297.9166666666665,-71.08333333333333,2400,6C2502.0833333333335,83.08333333333333,3254.1666666666665,213.75,2650,400C2045.8333333333335,586.25,156.25,795.8333333333334,-500,900" transform="matrix(1,0,0,1,0,505)" opacity="0.68"></path><path d="M-10,10C42.08333333333333,12.083333333333334,137.91666666666666,24.166666666666668,240,20C342.08333333333337,15.833333333333332,380,-10.833333333333334,480,-10C580,-9.166666666666666,620,24.625,720,24C820,23.375,860,-13.833333333333334,960,-13C1060,-12.166666666666666,1100,27.791666666666668,1200,28C1300,28.208333333333332,1340,-13.25,1440,-12C1540,-10.75,1580,33.583333333333336,1680,34C1780,34.416666666666664,1820,-9.166666666666666,1920,-10C2020,-10.833333333333334,2060,26.666666666666668,2160,30C2260,33.333333333333336,2297.9166666666665,-71.08333333333333,2400,6C2502.0833333333335,83.08333333333333,3254.1666666666665,213.75,2650,400C2045.8333333333335,586.25,156.25,795.8333333333334,-500,900" transform="matrix(1,0,0,1,0,606)" opacity="0.84"></path><path d="M-10,10C42.08333333333333,12.083333333333334,137.91666666666666,24.166666666666668,240,20C342.08333333333337,15.833333333333332,380,-10.833333333333334,480,-10C580,-9.166666666666666,620,24.625,720,24C820,23.375,860,-13.833333333333334,960,-13C1060,-12.166666666666666,1100,27.791666666666668,1200,28C1300,28.208333333333332,1340,-13.25,1440,-12C1540,-10.75,1580,33.583333333333336,1680,34C1780,34.416666666666664,1820,-9.166666666666666,1920,-10C2020,-10.833333333333334,2060,26.666666666666668,2160,30C2260,33.333333333333336,2297.9166666666665,-71.08333333333333,2400,6C2502.0833333333335,83.08333333333333,3254.1666666666665,213.75,2650,400C2045.8333333333335,586.25,156.25,795.8333333333334,-500,900" transform="matrix(1,0,0,1,0,707)" opacity="1"></path></g></svg>