<svg xmlns="http://www.w3.org/2000/svg" viewBox="0 0 1440 320"><path fill="#0099ff" fill-opacity="1" d="M0,256L24,250.7C48,245,96,235,144,202.7C192,171,240,117,288,122.7C336,128,384,192,432,224C480,256,528,256,576,234.7C624,213,672,171,720,133.3C768,96,816,64,864,69.3C912,75,960,117,1008,160C1056,203,1104,245,1152,261.3C1200,277,1248,267,1296,234.7C1344,203,1392,149,1416,122.7L1440,96L1440,0L1416,0C1392,0,1344,0,1296,0C1248,0,1200,0,1152,0C1104,0,1056,0,1008,0C960,0,912,0,864,0C816,0,768,0,720,0C672,0,624,0,576,0C528,0,480,0,432,0C384,0,336,0,288,0C240,0,192,0,144,0C96,0,48,0,24,0L0,0Z"></path></svg>
